<?xml version="1.0" encoding="UTF-8" standalone="no"?><!DOCTYPE svg PUBLIC "-//W3C//DTD SVG 1.1//EN" "http://www.w3.org/Graphics/SVG/1.1/DTD/svg11.dtd"><svg width="100%" height="100%" viewBox="0 0 273 74" version="1.1" xmlns="http://www.w3.org/2000/svg" xmlns:xlink="http://www.w3.org/1999/xlink" xml:space="preserve" xmlns:serif="http://www.serif.com/" style="fill-rule:evenodd;clip-rule:evenodd;stroke-linejoin:round;stroke-miterlimit:2;"><path d="M52.52,31.56l-22.91,0c-0.587,0 -1.07,0.483 -1.07,1.07l0,11.24c0.037,0.56 0.509,1.001 1.07,1l8.94,0l0,14c0,0 -2,0.68 -7.56,0.68c-6.55,0 -15.69,-2.39 -15.69,-22.5c0,-20.11 9.52,-22.8 18.44,-22.8c4.486,-0.157 8.962,0.522 13.2,2c0.066,0.012 0.133,0.019 0.2,0.019c0.588,0 1.074,-0.481 1.08,-1.069l2.58,-10.81c0.011,-0.33 -0.143,-0.645 -0.41,-0.84c-0.86,-0.61 -6.12,-3.56 -19.4,-3.56c-15.3,0 -31,6.51 -31,37.8c0,31.29 18,36 33.11,36c12.54,0 20.14,-5.36 20.14,-5.36c0.247,-0.193 0.379,-0.498 0.35,-0.81l0,-34.99c0,-0.587 -0.483,-1.07 -1.07,-1.07Z" style="fill:#fff;fill-rule:nonzero;"/><path d="M170.62,3.75c0,-0.003 0,-0.007 0,-0.01c0,-0.583 -0.477,-1.065 -1.06,-1.07l-12.9,0c0,0 0,0 0,0c-0.587,0 -1.07,0.483 -1.07,1.07c0,0.003 0,0.007 0,0.01l0,24.93l-20.12,0l0,-24.93c0,-0.003 0,-0.007 0,-0.01c0,-0.583 -0.477,-1.065 -1.06,-1.07l-12.9,0c0,0 0,0 0,0c-0.587,0 -1.07,0.483 -1.07,1.07c0,0.003 0,0.007 0,0.01l0,67.51c0,0.003 0,0.007 0,0.01c0,0.587 0.483,1.07 1.07,1.07l12.9,0c0.583,-0.005 1.06,-0.487 1.06,-1.07c0,-0.003 0,-0.007 0,-0.01l0,-28.88l20.11,0l0,28.88c0,0.589 0.481,1.075 1.07,1.08l12.93,0c0.583,-0.005 1.06,-0.487 1.06,-1.07c0,-0.003 0,-0.007 0,-0.01l0,-67.51l-0.02,0Z" style="fill:#fff;fill-rule:nonzero;"/><ellipse cx="68.55" cy="12.61" rx="8.32" ry="8.4" style="fill:#fff;"/><path d="M75.95,57.02l0,-31.15c0,-0.003 0,-0.007 0,-0.01c0,-0.587 -0.483,-1.07 -1.07,-1.07c0,0 0,0 0,0l-12.86,0c-0.622,0.056 -1.107,0.576 -1.12,1.2l0,44.64c-0.004,0.043 -0.005,0.087 -0.005,0.131c0,0.872 0.717,1.59 1.59,1.59c0.085,0 0.171,-0.007 0.255,-0.021l11.62,0c1.27,0 1.58,-0.62 1.58,-1.72l0,-13.59l0.01,0Z" style="fill:#fff;fill-rule:nonzero;"/><path d="M219.65,24.87l-12.8,0c-0.013,-0.001 -0.027,-0.001 -0.04,-0.001c-0.587,0 -1.07,0.483 -1.07,1.07c0,0.007 0,0.014 0,0.021l0,33.11c-2.338,1.537 -5.072,2.364 -7.87,2.38c-4.62,0 -5.84,-2.1 -5.84,-6.62l0,-28.87c0.011,-0.576 -0.444,-1.063 -1.02,-1.09l-13,0c-0.589,0.005 -1.07,0.491 -1.07,1.08l0,31.07c0,13.43 7.48,16.71 17.78,16.71c5.415,-0.15 10.689,-1.764 15.26,-4.67c0.109,0.924 0.266,1.842 0.47,2.75c0.191,0.343 0.548,0.563 0.94,0.58l8.27,0c0.593,0 1.08,-0.488 1.08,-1.08c0,-0.01 0,-0.02 0,-0.03l0,-45.32c0,-0.007 0,-0.013 0,-0.02c0,-0.587 -0.483,-1.07 -1.07,-1.07c-0.007,0 -0.013,0 -0.02,0Z" style="fill:#fff;fill-rule:nonzero;"/><path d="M254.65,23.36c-4.289,-0.028 -8.508,1.091 -12.22,3.24l0,-22.85c0,-0.003 0,-0.007 0,-0.01c0,-0.583 -0.477,-1.065 -1.06,-1.07l-12.94,0c0,0 0,0 0,0c-0.587,0 -1.07,0.483 -1.07,1.07c0,0.003 0,0.007 0,0.01l0,67.51c0,0.003 0,0.007 0,0.01c0,0.587 0.483,1.07 1.07,1.07l9,0c0.394,-0.002 0.756,-0.222 0.94,-0.57c0.261,-1.021 0.445,-2.061 0.55,-3.11c0.105,-1.049 5.29,5 15.31,5c11.76,0 18.5,-6 18.5,-26.78c0,-20.78 -10.8,-23.52 -18.08,-23.52Zm-5.05,38c-2.626,-0.067 -5.192,-0.808 -7.45,-2.15l0,-21.34c2.027,-1.156 4.27,-1.885 6.59,-2.14c4.61,-0.41 9.05,1 9.05,12c0.03,11.57 -1.98,13.86 -8.19,13.67l0,-0.04Z" style="fill:#fff;fill-rule:nonzero;"/><path d="M113.03,24.77l-9.68,0l0,-12.78c0.003,-0.025 0.004,-0.05 0.004,-0.076c0,-0.367 -0.302,-0.67 -0.67,-0.67c-0.048,0 -0.097,0.006 -0.144,0.016l-13.2,0c-0.041,-0.008 -0.082,-0.011 -0.123,-0.011c-0.367,0 -0.67,0.302 -0.67,0.67c0,0.02 0.001,0.041 0.003,0.061l0,13.21c0,0 -6.61,1.6 -7.06,1.68c-0.446,0.13 -0.758,0.536 -0.77,1l0,8.3c-0.003,0.03 -0.004,0.061 -0.004,0.091c0,0.57 0.455,1.044 1.024,1.069l6.76,0l0,20c0,14.84 10.41,16.29 17.43,16.29c2.604,-0.078 5.187,-0.502 7.68,-1.26c0.397,-0.166 0.644,-0.571 0.61,-1l0,-9.13c-0.005,-0.587 -0.483,-1.069 -1.07,-1.08c-0.56,0 -2,0.23 -3.49,0.23c-4.75,0 -6.36,-2.21 -6.36,-5.07l0,-19l9.68,0c0.587,0 1.07,-0.483 1.07,-1.07c0,-0.003 0,-0.007 0,-0.01l0,-10.36c0.017,-0.58 -0.441,-1.073 -1.02,-1.1Z" style="fill:#fff;fill-rule:nonzero;"/></svg>